<svg xmlns="http://www.w3.org/2000/svg" width="56" height="51" viewBox="0 0 56 51" fill="none"><path d="M22.3877 41.4829C20.9352 40.1681 19.2124 39.1873 17.3403 38.6096C19.3091 37.3143 20.6124 35.0864 20.6124 32.5585C20.6124 28.5668 17.3648 25.3193 13.373 25.3193C9.38115 25.3193 6.13374 28.5668 6.13374 32.5585C6.13374 35.0863 7.43687 37.3142 9.4058 38.6096C7.53366 39.1873 5.81077 40.168 4.35826 41.4829C1.90192 43.7042 0.356033 46.7334 0.00506395 50.0126C-0.00825478 50.1371 0.00477031 50.263 0.0432928 50.3821C0.0818153 50.5012 0.144973 50.6109 0.228662 50.7041C0.312351 50.7972 0.414698 50.8717 0.529052 50.9227C0.643406 50.9736 0.767209 51 0.892414 51H25.8534C25.9786 51 26.1024 50.9737 26.2168 50.9228C26.3312 50.8718 26.4335 50.7973 26.5172 50.7042C26.6009 50.611 26.6641 50.5013 26.7026 50.3822C26.7411 50.263 26.7541 50.1371 26.7407 50.0126C26.39 46.7334 24.844 43.7042 22.3877 41.4829ZM7.91882 32.5586C7.91882 29.5512 10.3657 27.1044 13.3731 27.1044C16.3807 27.1044 18.8275 29.5512 18.8275 32.5586C18.8275 35.5656 16.3814 38.0122 13.3747 38.0129H13.3718C10.3648 38.012 7.91882 35.5656 7.91882 32.5586ZM1.92792 49.215C2.97881 43.7815 7.73429 39.7985 13.3719 39.7979H13.3741C19.0117 39.7985 23.7671 43.7815 24.8181 49.215H1.92792ZM50.6368 41.4829C49.1843 40.168 47.4614 39.1872 45.5893 38.6096C47.5581 37.3143 48.8612 35.0864 48.8612 32.5586C48.8612 28.5669 45.6137 25.3194 41.622 25.3194C37.6302 25.3194 34.3826 28.5669 34.3826 32.5586C34.3826 35.0864 35.6858 37.3145 37.6548 38.6097C35.7827 39.1874 34.0598 40.1682 32.6073 41.483C30.151 43.7043 28.6051 46.7334 28.2541 50.0126C28.2408 50.1371 28.2537 50.263 28.2923 50.3822C28.3308 50.5013 28.3939 50.611 28.4776 50.7042C28.5613 50.7973 28.6637 50.8718 28.7781 50.9228C28.8924 50.9737 29.0163 51 29.1415 51H54.1024C54.2276 51 54.3514 50.9736 54.4658 50.9227C54.5801 50.8717 54.6825 50.7972 54.7662 50.7041C54.8499 50.6109 54.913 50.5012 54.9515 50.3821C54.9901 50.263 55.0031 50.1371 54.9898 50.0126C54.639 46.7334 53.093 43.7042 50.6368 41.4829ZM36.1675 32.5586C36.1675 29.5512 38.6144 27.1044 41.622 27.1044C44.6294 27.1044 47.0763 29.5512 47.0763 32.5586C47.0763 35.5656 44.6303 38.012 41.6234 38.0129H41.6205C38.6136 38.0122 36.1675 35.5656 36.1675 32.5586ZM30.1769 49.2149C31.2278 43.7814 35.9831 39.7983 41.6207 39.7978H41.623C47.2607 39.7983 52.0161 43.7814 53.067 49.2149H30.1769ZM52.1054 0H28.81C27.0298 0 25.5815 1.44839 25.5815 3.22855V8.68686C25.4579 8.78477 25.3625 8.91379 25.3053 9.0607L24.8281 10.3002C24.1698 10.4926 23.5343 10.7561 22.9329 11.086L22.7581 11.0083V3.9354C22.7581 2.15032 21.3058 0.698033 19.5208 0.698033H3.4091C1.62414 0.698033 0.171847 2.15032 0.171847 3.9354V15.3776C0.171847 17.1627 1.62414 18.6149 3.4091 18.6149H4.63705L8.571 22.5985C8.69534 22.7245 8.85433 22.8106 9.02776 22.846C9.20119 22.8813 9.3812 22.8643 9.54492 22.797C9.70864 22.7298 9.84869 22.6154 9.94726 22.4684C10.0458 22.3214 10.0985 22.1484 10.0985 21.9715V18.6149H16.5602V20.7857C16.5602 20.966 16.6148 21.1422 16.7169 21.2909C16.819 21.4395 16.9637 21.5538 17.132 21.6186L18.371 22.0955C18.5633 22.7542 18.8268 23.3899 19.157 23.9915L18.6178 25.2056C18.5446 25.3704 18.523 25.5536 18.5559 25.7309C18.5889 25.9082 18.6748 26.0714 18.8023 26.1989L20.7248 28.1214C20.8523 28.249 21.0155 28.3349 21.1928 28.3679C21.3702 28.4008 21.5533 28.3793 21.7182 28.3061L22.9329 27.7666C23.5342 28.0966 24.1697 28.36 24.8281 28.5523L25.3051 29.7917C25.3699 29.9601 25.4842 30.1048 25.6329 30.2069C25.7816 30.309 25.9577 30.3636 26.1381 30.3636H28.8569C29.0372 30.3636 29.2134 30.3089 29.3621 30.2069C29.5107 30.1048 29.625 29.96 29.6898 29.7917L30.1667 28.5527C30.8254 28.3605 31.4611 28.0969 32.0627 27.7668L33.2768 28.306C33.4416 28.3792 33.6248 28.4007 33.8021 28.3678C33.9794 28.3349 34.1426 28.249 34.2701 28.1214L36.1927 26.1989C36.3202 26.0714 36.4061 25.9082 36.4391 25.7309C36.472 25.5536 36.4505 25.3704 36.3773 25.2056L35.8378 23.9908C36.1678 23.3895 36.4312 22.754 36.6235 22.0956L37.8629 21.6185C38.0313 21.5537 38.176 21.4395 38.2781 21.2908C38.3802 21.1421 38.4348 20.9659 38.4348 20.7856V18.0667C38.434 17.9959 38.4248 17.9254 38.4072 17.8568H45.4375V21.1976C45.4374 21.3746 45.49 21.5477 45.5886 21.6947C45.6871 21.8418 45.8272 21.9562 45.9909 22.0235C46.1547 22.0907 46.3348 22.1077 46.5082 22.0723C46.6817 22.0369 46.8407 21.9507 46.965 21.8246L50.8834 17.8568H52.1054C53.8857 17.8568 55.3339 16.4085 55.3339 14.6282V3.22867C55.3339 1.44839 53.8857 0 52.1054 0ZM9.206 16.83C8.9693 16.83 8.74229 16.924 8.57492 17.0914C8.40754 17.2588 8.31351 17.4858 8.31351 17.7225V19.7976L5.64511 17.0954C5.5621 17.0113 5.46322 16.9446 5.35422 16.899C5.24521 16.8535 5.12825 16.83 5.0101 16.83H3.40921C2.60843 16.83 1.95692 16.1785 1.95692 15.3776V3.9354C1.95692 3.13462 2.60843 2.483 3.40921 2.483H19.5208C20.3216 2.483 20.9732 3.13451 20.9732 3.9354V10.558C20.8811 10.601 20.7972 10.6596 20.7249 10.7311L18.8025 12.6536C18.675 12.7811 18.5891 12.9443 18.5561 13.1216C18.5232 13.299 18.5447 13.4821 18.6179 13.6469L19.1573 14.8615C18.8273 15.4629 18.5638 16.0984 18.3715 16.7569L18.1817 16.83H9.206ZM36.6499 20.1729L35.5573 20.5935C35.422 20.6455 35.3014 20.7298 35.206 20.8389C35.1106 20.948 35.0432 21.0787 35.0097 21.2198C34.8206 22.0143 34.5058 22.7735 34.0772 23.4687C34.0012 23.5922 33.9564 23.7323 33.9468 23.8769C33.937 24.0215 33.9627 24.1664 34.0216 24.2988L34.4974 25.37L33.4415 26.426L32.3708 25.9505C32.2383 25.8915 32.0934 25.8658 31.9487 25.8755C31.804 25.8853 31.6639 25.9301 31.5405 26.0063C30.8451 26.435 30.0857 26.7498 29.291 26.9388C29.15 26.9724 29.0192 27.0398 28.9101 27.1352C28.801 27.2306 28.7167 27.3512 28.6647 27.4864L28.2442 28.5787H26.751L26.3304 27.4861C26.2783 27.3508 26.1941 27.2302 26.085 27.1348C25.9758 27.0394 25.8451 26.972 25.7041 26.9385C24.9096 26.7494 24.1504 26.4347 23.4551 26.0061C23.3317 25.9302 23.1916 25.8854 23.047 25.8756C22.9023 25.8659 22.7575 25.8916 22.625 25.9504L21.5538 26.4262L20.4979 25.3703L20.9734 24.2996C21.0322 24.1671 21.0579 24.0222 21.0482 23.8775C21.0385 23.7329 20.9936 23.5927 20.9176 23.4693C20.4889 22.7739 20.174 22.0145 19.9851 21.2198C19.9515 21.0787 19.8841 20.948 19.7887 20.8389C19.6933 20.7298 19.5727 20.6455 19.4374 20.5935L18.3451 20.173V18.6797L19.4376 18.2591C19.5729 18.207 19.6935 18.1228 19.7889 18.0137C19.8843 17.9045 19.9517 17.7738 19.9853 17.6328C20.1743 16.8382 20.4891 16.079 20.9177 15.3837C20.9937 15.2603 21.0385 15.1201 21.0482 14.9755C21.0579 14.8308 21.0323 14.686 20.9735 14.5535L20.4978 13.4825L21.5537 12.4266L22.6249 12.9024C22.7574 12.9612 22.9022 12.9869 23.0469 12.9772C23.1915 12.9674 23.3316 12.9226 23.455 12.8466C24.1502 12.418 24.9095 12.1033 25.704 11.9142C25.845 11.8806 25.9757 11.8132 26.0848 11.7178C26.1939 11.6224 26.2781 11.5018 26.3302 11.3665L26.7509 10.2738H28.2441L28.6647 11.3664C28.7167 11.5017 28.8009 11.6223 28.91 11.7177C29.0191 11.8131 29.1499 11.8805 29.2909 11.9141C30.0854 12.1031 30.8447 12.4179 31.5399 12.8465C31.6634 12.9225 31.8035 12.9672 31.9481 12.9769C32.0927 12.9867 32.2375 12.961 32.37 12.9023L33.4412 12.4265L34.4972 13.4824L34.0217 14.553C33.9628 14.6855 33.9372 14.8304 33.9469 14.9751C33.9566 15.1197 34.0014 15.2598 34.0775 15.3833C34.5062 16.0786 34.821 16.8381 35.01 17.6328C35.0436 17.7738 35.111 17.9045 35.2064 18.0136C35.3018 18.1228 35.4224 18.207 35.5577 18.2591L36.6499 18.6795V20.1729ZM53.549 14.6283C53.549 15.4243 52.9014 16.0719 52.1054 16.0719H50.5104C50.3923 16.0719 50.2753 16.0954 50.1663 16.141C50.0573 16.1865 49.9584 16.2533 49.8754 16.3373L47.2226 19.0237V16.9644C47.2226 16.7277 47.1286 16.5007 46.9612 16.3333C46.7938 16.166 46.5668 16.0719 46.3301 16.0719H36.3946C36.2377 15.6557 36.0518 15.2511 35.838 14.8611L36.3772 13.6468C36.4342 13.518 36.4597 13.3775 36.4517 13.2369H50.6596C50.8963 13.2369 51.1233 13.1428 51.2906 12.9754C51.458 12.8081 51.552 12.5811 51.552 12.3444C51.552 12.1077 51.458 11.8807 51.2906 11.7133C51.1233 11.5459 50.8963 11.4519 50.6596 11.4519H34.9909L34.27 10.7311C34.1425 10.6036 33.9793 10.5177 33.802 10.4847C33.6247 10.4518 33.4415 10.4733 33.2767 10.5465L32.0619 11.086C31.4606 10.7559 30.8251 10.4925 30.1667 10.3002L29.9272 9.67797C30.0317 9.71958 30.1432 9.74101 30.2556 9.74111H50.6595C50.8962 9.74111 51.1232 9.64708 51.2905 9.47971C51.4579 9.31234 51.5519 9.08533 51.5519 8.84863C51.5519 8.61193 51.4579 8.38492 51.2905 8.21755C51.1232 8.05017 50.8962 7.95614 50.6595 7.95614H30.2557C30.0514 7.95617 29.8533 8.02632 29.6944 8.15487C29.5356 8.28342 29.4256 8.46258 29.383 8.66243C29.2306 8.55006 29.0463 8.48925 28.8569 8.48884H27.3663V3.22867C27.3663 2.43268 28.0139 1.78508 28.8099 1.78508H52.1054C52.9014 1.78508 53.549 2.43268 53.549 3.22867V14.6283ZM51.5522 5.35289C51.5522 5.58959 51.4581 5.81659 51.2908 5.98396C51.1234 6.15134 50.8964 6.24537 50.6597 6.24537H30.2557C30.019 6.24537 29.792 6.15134 29.6247 5.98396C29.4573 5.81659 29.3633 5.58959 29.3633 5.35289C29.3633 5.11618 29.4573 4.88918 29.6247 4.72181C29.792 4.55443 30.019 4.4604 30.2557 4.4604H50.6596C50.7768 4.46039 50.8928 4.48346 51.0011 4.52831C51.1094 4.57315 51.2078 4.63889 51.2907 4.72177C51.3736 4.80464 51.4394 4.90303 51.4842 5.01132C51.5291 5.11961 51.5522 5.23567 51.5522 5.35289ZM15.2052 7.41686C15.2052 8.67426 14.35 9.4448 13.6631 10.064C13.0023 10.6595 12.5954 11.0552 12.5598 11.6599C12.553 11.7769 12.5231 11.8915 12.472 11.9969C12.4208 12.1024 12.3494 12.1967 12.2618 12.2746C12.1742 12.3525 12.0722 12.4123 11.9614 12.4508C11.8507 12.4892 11.7335 12.5054 11.6165 12.4985C11.4995 12.4917 11.385 12.4618 11.2795 12.4107C11.174 12.3595 11.0797 12.2881 11.0018 12.2005C10.9239 12.1129 10.8641 12.0109 10.8257 11.9001C10.7872 11.7894 10.771 11.6722 10.7779 11.5552C10.8582 10.1886 11.7508 9.38423 12.468 8.73796C13.0583 8.20604 13.4201 7.85764 13.4201 7.41686C13.4201 6.33863 12.5429 5.46154 11.4648 5.46154C10.3866 5.46154 9.50944 6.33863 9.50944 7.41686C9.50944 7.65356 9.41541 7.88057 9.24804 8.04794C9.08067 8.21532 8.85366 8.30934 8.61696 8.30934C8.38026 8.30934 8.15325 8.21532 7.98588 8.04794C7.81851 7.88057 7.72448 7.65356 7.72448 7.41686C7.72448 5.35445 9.40234 3.67658 11.4648 3.67658C13.5272 3.67658 15.2052 5.35456 15.2052 7.41686ZM12.5612 13.8218C12.5612 14.0585 12.4671 14.2855 12.2998 14.4528C12.1324 14.6202 11.9054 14.7142 11.6687 14.7142C11.432 14.7142 11.205 14.6202 11.0376 14.4528C10.8702 14.2855 10.7762 14.0585 10.7762 13.8218C10.7762 13.5851 10.8702 13.3581 11.0376 13.1907C11.205 13.0233 11.432 12.9293 11.6687 12.9293C11.9054 12.9293 12.1324 13.0233 12.2998 13.1907C12.4671 13.3581 12.5612 13.5851 12.5612 13.8218ZM27.4975 13.832C24.4129 13.832 21.9032 16.3416 21.9032 19.4262C21.9032 22.5109 24.4128 25.0205 27.4975 25.0205C30.5823 25.0205 33.0918 22.511 33.0918 19.4262C33.0917 16.3416 30.5822 13.832 27.4975 13.832ZM27.4975 23.2354C25.3971 23.2354 23.6882 21.5267 23.6882 19.4261C23.6882 17.3256 25.397 15.6169 27.4975 15.6169C29.5981 15.6169 31.3069 17.3256 31.3069 19.4261C31.3068 21.5267 29.598 23.2354 27.4975 23.2354Z" fill="#257A90"></path></svg>