<svg xmlns="http://www.w3.org/2000/svg" width="58" height="56" viewBox="0 0 58 56" fill="none"><path d="M51.2879 56.0002H0.976541C0.717546 56.0002 0.469159 55.8973 0.286022 55.7141C0.102885 55.531 0 55.2826 0 55.0236V14.5167C0 14.2577 0.102885 14.0093 0.286022 13.8262C0.469159 13.643 0.717546 13.5402 0.976541 13.5402C1.23554 13.5402 1.48392 13.643 1.66706 13.8262C1.8502 14.0093 1.95308 14.2577 1.95308 14.5167V54.0471H51.2879C52.4114 54.0436 53.4878 53.5949 54.281 52.7992C55.0742 52.0036 55.5196 50.9259 55.5196 49.8024V14.5167C55.5196 14.2577 55.6225 14.0093 55.8056 13.8262C55.9888 13.643 56.2372 13.5402 56.4962 13.5402C56.7551 13.5402 57.0035 13.643 57.1867 13.8262C57.3698 14.0093 57.4727 14.2577 57.4727 14.5167V49.8024C57.4727 51.4439 56.8215 53.0183 55.662 54.1803C54.5025 55.3422 52.9294 55.9967 51.2879 56.0002Z" fill="#DE5D5D"></path><path d="M28.756 38.3704C28.5306 38.3697 28.3122 38.2916 28.1376 38.149L0.351709 15.2524C0.197561 15.1213 0.0876387 14.9458 0.0369501 14.7498C-0.0137385 14.5539 -0.00272334 14.3471 0.0684917 14.1577C0.139707 13.9683 0.267651 13.8054 0.434857 13.6914C0.602063 13.5774 0.800381 13.5178 1.00274 13.5207H27.6102C27.8692 13.5207 28.1176 13.6236 28.3007 13.8067C28.4839 13.9898 28.5868 14.2382 28.5868 14.4972C28.5868 14.7562 28.4839 15.0046 28.3007 15.1877C28.1176 15.3709 27.8692 15.4738 27.6102 15.4738H3.69799L28.756 36.1309L53.7946 15.4933H37.6035C37.3445 15.4933 37.0961 15.3904 36.913 15.2073C36.7298 15.0241 36.627 14.7757 36.627 14.5167C36.627 14.2577 36.7298 14.0094 36.913 13.8262C37.0961 13.6431 37.3445 13.5402 37.6035 13.5402H56.4833C56.6874 13.5334 56.8885 13.5907 57.0583 13.7042C57.2281 13.8176 57.3581 13.9814 57.4299 14.1726C57.5018 14.3637 57.5119 14.5726 57.4589 14.7698C57.4059 14.967 57.2924 15.1426 57.1343 15.2719L29.355 38.149C29.1855 38.2874 28.9748 38.3653 28.756 38.3704Z" fill="#DE5D5D"></path><path d="M1.68617 55.2839C1.4274 55.2829 1.17944 55.18 0.996078 54.9974C0.904746 54.9072 0.832232 54.7997 0.78274 54.6813C0.733248 54.5628 0.707764 54.4357 0.707764 54.3073C0.707764 54.179 0.733248 54.0518 0.78274 53.9334C0.832232 53.8149 0.904746 53.7075 0.996078 53.6172L21.6336 32.9797C21.7231 32.8837 21.8309 32.8068 21.9506 32.7534C22.0704 32.7 22.1997 32.6713 22.3309 32.669C22.462 32.6667 22.5922 32.6908 22.7138 32.7399C22.8354 32.7891 22.9459 32.8622 23.0386 32.9549C23.1313 33.0476 23.2044 33.1581 23.2536 33.2797C23.3027 33.4013 23.3268 33.5315 23.3245 33.6626C23.3222 33.7938 23.2935 33.9231 23.2401 34.0429C23.1867 34.1626 23.1098 34.2705 23.0138 34.3599L2.37626 54.9974C2.19289 55.18 1.94493 55.2829 1.68617 55.2839ZM54.797 53.6628C54.5551 53.6602 54.3229 53.5673 54.146 53.4024L34.3808 33.6633C34.2083 33.4781 34.1144 33.2333 34.1188 32.9803C34.1233 32.7273 34.2258 32.4859 34.4047 32.307C34.5836 32.1281 34.825 32.0256 35.078 32.0211C35.331 32.0167 35.5758 32.1106 35.7609 32.2831L55.5001 52.0222C55.6814 52.2062 55.783 52.4541 55.783 52.7123C55.783 52.9706 55.6814 53.2185 55.5001 53.4024C55.3086 53.5775 55.0563 53.6709 54.797 53.6628ZM35.826 9.0414C35.6968 9.04068 35.5689 9.01378 35.4503 8.96231C35.3317 8.91084 35.2248 8.83587 35.136 8.74192L28.7559 2.36186L22.3368 8.74192C22.2482 8.83852 22.1411 8.9163 22.0219 8.97064C21.9027 9.02499 21.7737 9.05478 21.6427 9.05824C21.5117 9.0617 21.3814 9.03877 21.2594 8.9908C21.1375 8.94284 21.0265 8.87082 20.9329 8.77904C20.8394 8.68726 20.7653 8.5776 20.715 8.45659C20.6648 8.33557 20.6394 8.20568 20.6404 8.07465C20.6414 7.94362 20.6687 7.81413 20.7208 7.69389C20.7729 7.57365 20.8487 7.46512 20.9436 7.37477L28.0463 0.278569C28.2277 0.100049 28.4721 0 28.7266 0C28.9811 0 29.2255 0.100049 29.4069 0.278569L36.5161 7.37477C36.6075 7.46499 36.68 7.57245 36.7295 7.69091C36.779 7.80937 36.8044 7.93647 36.8044 8.06486C36.8044 8.19324 36.779 8.32034 36.7295 8.4388C36.68 8.55726 36.6075 8.66472 36.5161 8.75495C36.4262 8.84653 36.3188 8.91909 36.2002 8.9683C36.0816 9.01751 35.9544 9.04237 35.826 9.0414Z" fill="#DE5D5D"></path><path d="M28.7561 25.1868C28.4971 25.1868 28.2487 25.0839 28.0656 24.9008C27.8824 24.7177 27.7795 24.4693 27.7795 24.2103V2.23161C27.7795 1.97261 27.8824 1.72423 28.0656 1.54109C28.2487 1.35795 28.4971 1.25507 28.7561 1.25507C29.0151 1.25507 29.2635 1.35795 29.4466 1.54109C29.6297 1.72423 29.7326 1.97261 29.7326 2.23161V24.2103C29.7326 24.4693 29.6297 24.7177 29.4466 24.9008C29.2635 25.0839 29.0151 25.1868 28.7561 25.1868Z" fill="#DE5D5D"></path></svg>