<svg xmlns="http://www.w3.org/2000/svg" width="55" height="50" viewBox="0 0 55 50" fill="none"><path fill-rule="evenodd" clip-rule="evenodd" d="M43.1367 11.2109L32.5552 22.2559C32.4256 22.3911 32.2563 22.4816 32.0718 22.5141C31.8873 22.5466 31.6973 22.5194 31.5293 22.4366L19.8973 16.6999L8.18559 26.9014C8.00939 27.0548 7.77949 27.1319 7.54643 27.1159C7.31337 27.0999 7.09622 26.9919 6.94269 26.8158C6.78932 26.6396 6.71219 26.4097 6.72825 26.1767C6.74432 25.9436 6.85226 25.7264 7.02837 25.5729L19.1823 14.9861C19.3133 14.872 19.4751 14.7992 19.6474 14.7768C19.8197 14.7545 19.9947 14.7835 20.1505 14.8604L31.7295 20.5707L41.889 9.96641L41.5892 10.0004C41.3571 10.0267 41.1241 9.95968 40.9413 9.8142C40.7585 9.66872 40.641 9.45664 40.6145 9.22455C40.5882 8.99243 40.6552 8.75939 40.8007 8.57662C40.9462 8.39385 41.1583 8.2763 41.3903 8.24979L44.1185 7.93992C44.2479 7.9252 44.3789 7.93934 44.5021 7.98133C44.6253 8.02331 44.7377 8.09209 44.8312 8.18272C44.9246 8.27335 44.9969 8.38357 45.0426 8.50546C45.0884 8.62734 45.1065 8.75785 45.0958 8.88759L44.8588 11.7661C44.8396 11.9989 44.7286 12.2145 44.5505 12.3656C44.3723 12.5167 44.1415 12.5908 43.9086 12.5718C43.6758 12.5525 43.4602 12.4416 43.3091 12.2634C43.158 12.0852 43.0839 11.8543 43.1029 11.6215L43.1367 11.2109ZM1.76188 9.6974V48.2381H53.7374C54.2236 48.2381 54.6183 48.6328 54.6183 49.1191C54.6183 49.6052 54.2236 50 53.7374 50H0.880941C0.394772 50 0 49.6052 0 49.1191V0.880941C0 0.394772 0.394772 0 0.880941 0C1.36711 0 1.76188 0.394772 1.76188 0.880941V7.93551L5.25349 7.94036C5.73966 7.94102 6.13388 8.33634 6.13322 8.82251C6.13256 9.30868 5.73724 9.7029 5.25107 9.70224L1.76188 9.6974ZM16.4903 24.3859H23.0357C23.2694 24.3859 23.4934 24.4787 23.6586 24.6439C23.8239 24.8091 23.9167 25.0332 23.9167 25.2668V45.7841C23.9167 46.0178 23.8239 46.2419 23.6586 46.4071C23.4934 46.5723 23.2694 46.6651 23.0357 46.6651H16.4903C16.2567 46.6651 16.0326 46.5723 15.8674 46.4071C15.7022 46.2419 15.6094 46.0178 15.6094 45.7841V25.2668C15.6094 25.0332 15.7022 24.8091 15.8674 24.6439C16.0326 24.4787 16.2567 24.3859 16.4903 24.3859ZM17.3713 26.1478V44.9032H22.1548V26.1478H17.3713ZM4.33214 33.9876H10.8818C11.1155 33.9876 11.3395 34.0804 11.5047 34.2456C11.6699 34.4108 11.7628 34.6349 11.7628 34.8685V45.7841C11.7628 46.0178 11.6699 46.2419 11.5047 46.4071C11.3395 46.5723 11.1155 46.6651 10.8818 46.6651H4.33214C4.0985 46.6651 3.87443 46.5723 3.70922 46.4071C3.54401 46.2419 3.4512 46.0178 3.4512 45.7841V34.8685C3.4512 34.6349 3.54401 34.4108 3.70922 34.2456C3.87443 34.0804 4.0985 33.9876 4.33214 33.9876ZM5.21308 35.7495V44.9032H10.0009V35.7495H5.21308ZM28.6442 28.265H35.1895C35.4232 28.265 35.6472 28.3578 35.8124 28.523C35.9776 28.6882 36.0705 28.9123 36.0705 29.1459V45.7841C36.0705 46.0178 35.9776 46.2419 35.8124 46.4071C35.6472 46.5723 35.4232 46.6651 35.1895 46.6651H28.6442C28.4106 46.6651 28.1865 46.5723 28.0213 46.4071C27.8561 46.2419 27.7633 46.0178 27.7633 45.7841V29.1459C27.7633 28.9123 27.8561 28.6882 28.0213 28.523C28.1865 28.3578 28.4106 28.265 28.6442 28.265ZM29.5252 30.0269V44.9032H34.3086V30.0269H29.5252ZM40.8023 16.92H47.3477C47.5813 16.92 47.8054 17.0128 47.9706 17.178C48.1358 17.3432 48.2286 17.5673 48.2286 17.801V45.7841C48.2286 46.0178 48.1358 46.2419 47.9706 46.4071C47.8054 46.5723 47.5813 46.6651 47.3477 46.6651H40.8023C40.5687 46.6651 40.3446 46.5723 40.1794 46.4071C40.0142 46.2419 39.9214 46.0178 39.9214 45.7841V17.801C39.9214 17.5673 40.0142 17.3432 40.1794 17.178C40.3446 17.0128 40.5687 16.92 40.8023 16.92ZM41.6833 18.6819V44.9032H46.4668V18.6819H41.6833ZM12.5191 7.95038C13.0052 7.95104 13.3994 8.34636 13.3988 8.83253C13.3981 9.3187 13.0028 9.71292 12.5166 9.71226L9.04286 9.70742C8.80925 9.70698 8.58538 9.61382 8.42042 9.44841C8.25547 9.283 8.16292 9.05887 8.16313 8.82526C8.16357 8.59166 8.25673 8.36779 8.42214 8.20283C8.58755 8.03787 8.81168 7.94533 9.04528 7.94554L12.5191 7.95038ZM19.1726 7.95952C19.6589 7.96018 20.0531 8.3555 20.0523 8.84167C20.0519 9.07528 19.9587 9.29915 19.7933 9.46411C19.6279 9.62906 19.4038 9.72161 19.1702 9.7214L16.0055 9.71711C15.7719 9.71667 15.548 9.62351 15.383 9.4581C15.2181 9.29269 15.1256 9.06856 15.1258 8.83496C15.1261 8.60133 15.2193 8.37742 15.3847 8.21246C15.5501 8.04749 15.7743 7.95496 16.0079 7.95523L19.1726 7.95952ZM25.8412 7.96877C26.0748 7.96921 26.2987 8.06237 26.4636 8.22778C26.6286 8.39319 26.7211 8.61732 26.7209 8.85092C26.7201 9.33709 26.3249 9.73131 25.8388 9.73065L22.6922 9.72625C22.206 9.72559 21.8118 9.33027 21.8124 8.8441C21.8131 8.35793 22.2084 7.96371 22.6946 7.96437L25.8412 7.96877ZM32.5992 7.97802C33.0854 7.97868 33.4796 8.374 33.4789 8.86017C33.4783 9.34634 33.083 9.74056 32.5968 9.7399L28.8864 9.73484C28.6528 9.7344 28.4289 9.64124 28.2639 9.47583C28.099 9.31042 28.0064 9.08629 28.0067 8.85268C28.0071 8.61908 28.1002 8.39521 28.2657 8.23025C28.4311 8.06529 28.6552 7.97275 28.8888 7.97296L32.5992 7.97802ZM38.8906 7.98848C39.1242 7.98901 39.348 8.08229 39.5129 8.24781C39.6778 8.41334 39.7702 8.63756 39.7697 8.87118C39.7691 9.10478 39.6758 9.32858 39.5103 9.49343C39.3448 9.65827 39.1206 9.75068 38.887 9.75036L36.2201 9.74486C35.9865 9.74433 35.7626 9.65105 35.5978 9.48553C35.4329 9.32 35.3405 9.09578 35.3409 8.86215C35.3415 8.62856 35.4348 8.40475 35.6003 8.23992C35.7658 8.07508 35.99 7.98271 36.2236 7.98309L38.8906 7.98848Z" fill="#00005C"></path></svg>