<svg xmlns="http://www.w3.org/2000/svg" width="41" height="64" viewBox="0 0 41 64" fill="none"><path d="M39.4508 41.3046H0.998769C0.446259 41.3046 0 41.7521 0 42.3033L0.00374992 46.1422C0.00407316 46.3528 0.0709744 46.558 0.194897 46.7284C0.318819 46.8988 0.493423 47.0257 0.693764 47.0909L3.82258 48.1097C4.21008 49.5835 4.79384 50.9897 5.56136 52.306L4.06758 55.2411C3.97213 55.4291 3.93851 55.6426 3.97151 55.8509C4.00451 56.0592 4.10244 56.2517 4.25133 56.4011L7.60015 59.7499C7.74933 59.8991 7.94192 59.9973 8.15031 60.0303C8.35869 60.0633 8.57218 60.0295 8.76017 59.9337L11.6952 58.4399C13.0083 59.207 14.4196 59.792 15.8903 60.1787L16.9091 63.31C16.9744 63.5105 17.1014 63.6853 17.2721 63.8092C17.4427 63.9332 17.6482 63.9999 17.8591 64H22.5967C23.0305 64 23.4142 63.7212 23.5467 63.3087L24.5617 60.1787C26.0355 59.7912 27.4418 59.2074 28.7568 58.4399L31.6919 59.9337C31.8797 60.0294 32.0929 60.0632 32.3011 60.0302C32.5093 59.9972 32.7017 59.899 32.8506 59.7499L36.2007 56.3999C36.3493 56.2506 36.4471 56.0582 36.4801 55.8502C36.5131 55.6422 36.4796 55.429 36.3845 55.2411L34.8907 52.306C35.6578 50.9925 36.2428 49.5808 36.6295 48.1097L39.7608 47.0909C39.9613 47.0256 40.1361 46.8986 40.26 46.7279C40.384 46.5573 40.4507 46.3518 40.4508 46.1409V42.3033C40.4495 41.7521 40.002 41.3046 39.4508 41.3046ZM26.8855 43.7746C26.8855 47.4472 23.8967 50.436 20.2241 50.436C16.5516 50.436 13.5628 47.4472 13.5628 43.7746C13.5628 43.6184 13.5703 43.4608 13.5815 43.3033H26.8668C26.878 43.4608 26.8855 43.6171 26.8855 43.7746ZM38.4508 45.4159L35.4807 46.3822C35.3161 46.4356 35.1681 46.5308 35.0513 46.6586C34.9346 46.7863 34.8529 46.9422 34.8144 47.1109C34.4429 48.7489 33.7953 50.3116 32.8994 51.7323C32.8071 51.8789 32.7545 52.047 32.7466 52.2201C32.7387 52.3932 32.7759 52.5653 32.8544 52.7198L34.2719 55.5023L31.9494 57.8249L29.1668 56.4074C29.0125 56.3285 28.8403 56.2912 28.6671 56.2991C28.494 56.307 28.3259 56.3598 28.1793 56.4524C26.7587 57.3483 25.1959 57.9958 23.558 58.3674C23.3894 58.4058 23.2336 58.4873 23.1059 58.6038C22.9782 58.7204 22.8829 58.868 22.8292 59.0324L21.8654 62.0025H18.5804L17.6141 59.0324C17.5608 58.8678 17.4656 58.7199 17.3378 58.6033C17.21 58.4867 17.0541 58.4054 16.8853 58.3674C15.2474 57.9958 13.6846 57.3483 12.264 56.4524C12.1173 56.3601 11.9493 56.3074 11.7762 56.2996C11.6031 56.2917 11.4309 56.3288 11.2765 56.4074L8.49517 57.8249L6.17512 55.4998L7.59265 52.7185C7.67149 52.5642 7.7088 52.392 7.70091 52.2188C7.69302 52.0457 7.6402 51.8776 7.54765 51.731C6.65174 50.3104 6.00415 48.7476 5.63261 47.1097C5.59412 46.9409 5.51248 46.7851 5.3957 46.6573C5.27891 46.5296 5.13097 46.4343 4.96635 46.3809L1.99879 45.4146L1.99629 43.3021H11.5777C11.569 43.4596 11.564 43.6171 11.564 43.7734C11.564 48.5484 15.4491 52.4335 20.2241 52.4335C24.9992 52.4335 28.8843 48.5484 28.8843 43.7734C28.8843 43.6171 28.8793 43.4596 28.8706 43.3021H38.452V45.4159H38.4508ZM12.1827 27.2743C12.4577 27.5818 12.7428 27.9005 13.0228 28.2293C13.9465 29.3093 14.3953 30.5268 14.3953 31.9494V33.8419C14.3953 34.0457 14.409 34.2469 14.4315 34.4444L14.4353 34.4719C14.7465 36.9857 16.8941 38.9383 19.4904 38.9383H20.9567C23.553 38.9383 25.7005 36.9857 26.0118 34.4719L26.0155 34.4444C26.0393 34.2469 26.0518 34.0457 26.0518 33.8419V31.9494C26.0518 31.5969 26.0793 31.2556 26.1355 30.9269C26.1355 30.9244 26.1355 30.9231 26.1368 30.9206C26.3068 29.9293 26.7318 29.0418 27.4243 28.2293C27.703 27.903 27.9856 27.5868 28.2593 27.2818C30.0956 25.2292 31.8306 23.2905 31.8306 19.0479C31.8306 12.6465 26.623 7.44015 20.2229 7.44015C13.8228 7.44015 8.61517 12.6477 8.61517 19.0479C8.61642 23.2855 10.3477 25.223 12.1827 27.2743ZM24.058 31.7581C24.0567 31.8219 24.0542 31.8856 24.0542 31.9494V33.3494H16.3928V31.9494C16.3928 31.8844 16.3903 31.8219 16.3891 31.7581H24.058ZM20.9579 36.9382H19.4916C18.3304 36.9382 17.3166 36.2957 16.7866 35.3469H23.663C23.1317 36.2957 22.1192 36.9382 20.9579 36.9382ZM20.2241 9.43893C25.523 9.43893 29.8343 13.7503 29.8343 19.0491C29.8343 22.5267 28.4831 24.038 26.7718 25.9505C26.4905 26.2655 26.1993 26.5905 25.9055 26.9343C25.163 27.8055 24.6492 28.7418 24.3542 29.7618H21.2229V22.4404L22.3017 21.3617C22.4849 21.1735 22.5867 20.9208 22.585 20.6581C22.5833 20.3955 22.4782 20.1441 22.2924 19.9584C22.1067 19.7727 21.8553 19.6676 21.5927 19.6658C21.3301 19.6641 21.0773 19.7659 20.8892 19.9491L20.2241 20.6117L19.5591 19.9466C19.371 19.7634 19.1182 19.6616 18.8556 19.6633C18.593 19.6651 18.3416 19.7702 18.1559 19.9559C17.9701 20.1416 17.865 20.393 17.8633 20.6556C17.8616 20.9183 17.9634 21.171 18.1466 21.3592L19.2254 22.4379V29.7593H16.0953C15.8003 28.7381 15.2866 27.8018 14.5428 26.9318C14.2478 26.5855 13.9553 26.2593 13.6728 25.9418C11.964 24.0305 10.6152 22.5217 10.6152 19.0466C10.6152 13.749 14.9253 9.43893 20.2241 9.43893ZM1.17502 19.0479C1.17502 18.4954 1.62253 18.0491 2.17379 18.0491H5.1926C5.74511 18.0491 6.19137 18.4966 6.19137 19.0479C6.19137 19.5991 5.74386 20.0466 5.1926 20.0466H2.17379C1.62253 20.0479 1.17502 19.6004 1.17502 19.0479ZM34.2557 19.0479C34.2557 18.4954 34.7032 18.0491 35.2544 18.0491H38.2733C38.8258 18.0491 39.272 18.4966 39.272 19.0479C39.272 19.5991 38.8245 20.0466 38.2733 20.0466H35.2544C34.7032 20.0479 34.2557 19.6004 34.2557 19.0479ZM6.75388 32.5181C6.56659 32.3308 6.46137 32.0768 6.46137 31.8119C6.46137 31.547 6.56659 31.2929 6.75388 31.1056L8.89017 28.9693C9.07832 28.7861 9.33108 28.6843 9.59371 28.686C9.85635 28.6877 10.1077 28.7928 10.2935 28.9786C10.4792 29.1643 10.5843 29.4157 10.586 29.6783C10.5877 29.9409 10.486 30.1937 10.3027 30.3818L8.16641 32.5181C7.97141 32.7131 7.71515 32.8106 7.46015 32.8106C7.20514 32.8106 6.94889 32.7131 6.75388 32.5181ZM30.1481 9.12518C29.9608 8.93785 29.8556 8.68381 29.8556 8.41891C29.8556 8.15402 29.9608 7.89997 30.1481 7.71265L32.2806 5.57886C32.4688 5.3956 32.7215 5.29382 32.9842 5.29555C33.2468 5.29728 33.4982 5.40238 33.6839 5.5881C33.8696 5.77382 33.9747 6.02521 33.9765 6.28785C33.9782 6.55049 33.8764 6.80324 33.6932 6.99139L31.5606 9.12518C31.3656 9.32018 31.1094 9.41768 30.8544 9.41768C30.5994 9.41768 30.3431 9.32018 30.1481 9.12518ZM19.2254 4.01758V0.99877C19.2254 0.446259 19.6729 0 20.2241 0C20.7754 0 21.2229 0.447509 21.2229 0.99877V4.01758C21.2229 4.57009 20.7754 5.01635 20.2241 5.01635C19.6729 5.01635 19.2254 4.56884 19.2254 4.01758ZM31.5619 28.9693L33.6944 31.1056C34.0844 31.4956 34.0832 32.1294 33.6932 32.5181C33.4982 32.7131 33.2432 32.8106 32.9869 32.8106C32.7306 32.8106 32.4744 32.7131 32.2794 32.5169L30.1468 30.3806C29.7568 29.9906 29.7581 29.3568 30.1481 28.9681C30.5394 28.5781 31.1719 28.5781 31.5619 28.9693ZM6.75513 6.99264C6.66218 6.90004 6.5884 6.79002 6.53802 6.66887C6.48764 6.54773 6.46165 6.41784 6.46153 6.28663C6.46142 6.15543 6.48718 6.02549 6.53734 5.90426C6.58751 5.78302 6.66109 5.67287 6.75388 5.58011C6.84648 5.48716 6.9565 5.41338 7.07765 5.363C7.19879 5.31262 7.32868 5.28663 7.45989 5.28651C7.59109 5.28639 7.72103 5.31215 7.84226 5.36232C7.9635 5.41249 8.07365 5.48607 8.16641 5.57886L10.3027 7.71265C10.3957 7.80525 10.4694 7.91527 10.5198 8.03641C10.5702 8.15756 10.5962 8.28745 10.5963 8.41866C10.5964 8.54986 10.5707 8.6798 10.5205 8.80103C10.4703 8.92227 10.3967 9.03242 10.304 9.12518C10.2113 9.2182 10.1011 9.29203 9.9799 9.34245C9.85864 9.39286 9.72864 9.41887 9.59732 9.41899C9.46601 9.41911 9.33596 9.39332 9.21462 9.34312C9.09328 9.29292 8.98303 9.21929 8.89017 9.12643L6.75513 6.99264Z" fill="#0F367A"></path></svg>