<svg xmlns="http://www.w3.org/2000/svg" width="54" height="51" viewBox="0 0 54 51" fill="none"><path d="M46.2819 51H7.86343C7.52643 51 7.30176 50.7753 7.30176 50.4383V0.561674C7.30176 0.22467 7.52643 0 7.86343 0H46.2819C46.6189 0 46.8436 0.22467 46.8436 0.561674V11.7952C46.8436 12.1322 46.6189 12.3568 46.2819 12.3568C45.9449 12.3568 45.7203 12.1322 45.7203 11.7952V1.12335H8.42511V49.7643H45.7203V39.6542C45.7203 39.3172 45.9449 39.0925 46.2819 39.0925C46.6189 39.0925 46.8436 39.3172 46.8436 39.6542V50.326C46.8436 50.663 46.6189 51 46.2819 51Z" fill="#00005C"></path><path d="M7.8632 47.293H4.15616C3.81915 47.293 3.59448 47.0684 3.59448 46.7313V4.2688C3.59448 3.93179 3.81915 3.70712 4.15616 3.70712H7.8632C8.20021 3.70712 8.42488 3.93179 8.42488 4.2688V46.8437C8.42488 47.0684 8.20021 47.293 7.8632 47.293ZM4.71783 46.1697H7.1892V4.83047H4.71783V46.1697Z" fill="#00005C"></path><path d="M4.15639 44.2601H0.561674C0.22467 44.2601 0 44.0354 0 43.6984V7.30191C0 6.9649 0.22467 6.74023 0.561674 6.74023H4.15639C4.49339 6.74023 4.71806 6.9649 4.71806 7.30191V43.6984C4.71806 44.0354 4.49339 44.2601 4.15639 44.2601ZM1.12335 43.1367H3.59471V7.86358H1.12335V43.1367ZM18.0859 46.5068H13.9295C13.5925 46.5068 13.3678 46.2821 13.3678 45.9451V38.3063C13.3678 37.9693 13.5925 37.7446 13.9295 37.7446H18.0859C18.4229 37.7446 18.6476 37.9693 18.6476 38.3063V45.9451C18.6476 46.1698 18.4229 46.5068 18.0859 46.5068ZM14.4912 45.3834H17.5242V38.868H14.4912V45.3834ZM25.5 46.5068H21.3436C21.0066 46.5068 20.7819 46.2821 20.7819 45.9451V35.4979C20.7819 35.1609 21.0066 34.9363 21.3436 34.9363H25.5C25.837 34.9363 26.0617 35.1609 26.0617 35.4979V45.9451C26.0617 46.1698 25.7247 46.5068 25.5 46.5068ZM21.793 45.3834H24.826V36.0596H21.793V45.3834ZM32.8018 46.5068H28.6454C28.3084 46.5068 28.0837 46.2821 28.0837 45.9451V39.7667C28.0837 39.4297 28.3084 39.205 28.6454 39.205H32.8018C33.1388 39.205 33.3634 39.4297 33.3634 39.7667V45.9451C33.3634 46.2821 33.1388 46.5068 32.8018 46.5068ZM29.207 45.3834H32.2401V40.3283H29.207V45.3834ZM40.2159 46.5068H36.0595C35.7225 46.5068 35.4978 46.2821 35.4978 45.9451V32.9142C35.4978 32.5772 35.7225 32.3526 36.0595 32.3526H40.2159C40.5529 32.3526 40.7775 32.5772 40.7775 32.9142V45.9451C40.7775 46.2821 40.5529 46.5068 40.2159 46.5068ZM36.6211 45.3834H39.6542V33.4759H36.6211V45.3834ZM29.207 14.2667C28.9824 14.2667 28.87 14.1543 28.7577 14.042C28.533 13.8173 28.6454 13.4803 28.87 13.2557L35.1608 8.98693C35.3855 8.76226 35.7225 8.87459 35.9471 9.09926C36.1718 9.32393 36.0595 9.66094 35.8348 9.88561L29.5441 14.1543C29.4317 14.2667 29.3194 14.2667 29.207 14.2667ZM17.2996 12.5816C17.0749 12.5816 16.9626 12.4693 16.8502 12.357C16.6256 12.1323 16.7379 11.7953 16.9626 11.5706L20.6696 9.09926C20.8943 8.87459 21.2313 8.98693 21.4559 9.2116C21.6806 9.43627 21.5683 9.77327 21.3436 9.99794L17.6366 12.4693C17.5242 12.5816 17.4119 12.5816 17.2996 12.5816ZM26.0617 13.9297C25.837 13.9297 25.7247 13.8173 25.6123 13.705L23.3656 10.3349C23.141 10.1103 23.2533 9.77327 23.478 9.5486C23.7026 9.32393 24.0396 9.43627 24.2643 9.66094L26.511 13.031C26.7357 13.2557 26.6233 13.5927 26.3987 13.8173C26.2863 13.9297 26.174 13.9297 26.0617 13.9297Z" fill="#00005C"></path><path d="M22.692 11.0089H22.2427C21.5687 10.8966 21.007 10.4472 20.67 9.88557C20.333 9.3239 20.1083 8.64989 20.333 7.97588C20.4453 7.30187 20.8947 6.7402 21.4564 6.40319C22.5797 5.61685 24.2647 5.95385 24.9387 7.0772C25.2757 7.63888 25.5004 8.31289 25.2757 8.98689C25.1634 9.6609 24.7141 10.2226 24.1524 10.5596C23.5907 10.7843 23.1414 11.0089 22.692 11.0089ZM21.7934 7.18954C21.4564 7.41421 21.2317 7.75121 21.2317 8.08822C21.1194 8.42522 21.2317 8.87456 21.4564 9.21156C21.681 9.54857 22.018 9.77324 22.355 9.77324C22.692 9.88557 23.1414 9.77324 23.4784 9.54857C23.8154 9.3239 24.0401 8.98689 24.0401 8.64989C24.1524 8.31288 24.0401 7.86355 23.8154 7.52654C23.3661 6.96487 22.4674 6.7402 21.7934 7.18954ZM27.5224 17.2997H27.0731C26.3991 17.1873 25.8374 16.738 25.5004 16.1763C25.1634 15.6146 24.9387 14.9406 25.1634 14.2666C25.2757 13.5926 25.7251 13.0309 26.2868 12.6939C27.4101 11.9076 29.0951 12.2446 29.7691 13.368C30.5555 14.4913 30.2185 16.1763 29.0951 16.8503C28.5335 17.1873 28.0841 17.2997 27.5224 17.2997ZM27.5224 13.2556C27.2978 13.2556 26.9608 13.368 26.7361 13.4803C26.3991 13.705 26.1744 14.042 26.1744 14.379C26.0621 14.716 26.1744 15.1653 26.3991 15.5023C26.6238 15.8393 26.9608 16.064 27.2978 16.064C27.6348 16.1763 28.0841 16.064 28.4211 15.8393C29.0951 15.39 29.2075 14.4913 28.7581 13.8173C28.4211 13.4803 27.9718 13.2556 27.5224 13.2556ZM37.1832 10.8966H36.7339C36.0599 10.7843 35.4982 10.3349 35.1612 9.77324C34.8242 9.21156 34.5995 8.53755 34.8242 7.86355C34.9365 7.18954 35.3859 6.62786 35.9475 6.29086C37.0709 5.50451 38.7559 5.84152 39.4299 6.96487C40.2163 8.08822 39.8793 9.77324 38.7559 10.4472C38.1942 10.7843 37.7449 10.8966 37.1832 10.8966ZM37.1832 6.85253C36.9586 6.85253 36.6216 6.96487 36.3969 7.0772C36.0599 7.30187 35.8352 7.63888 35.8352 7.97588C35.7229 8.31288 35.8352 8.76222 36.0599 9.09923C36.2845 9.43623 36.6216 9.6609 36.9586 9.6609C37.2956 9.77324 37.7449 9.6609 38.0819 9.43623C38.7559 8.98689 38.8683 8.08821 38.4189 7.41421C38.0819 7.0772 37.6326 6.85253 37.1832 6.85253ZM15.6149 15.39H15.1656C14.4916 15.2776 13.9299 14.8283 13.5929 14.2666C13.2559 13.705 13.0312 13.0309 13.2559 12.3569C13.3683 11.6829 13.8176 11.1213 14.3793 10.7842C14.9409 10.4472 15.6149 10.2226 16.289 10.4472C16.963 10.5596 17.5246 11.0089 17.8616 11.5706C18.648 12.6939 18.311 14.379 17.1876 15.053C16.626 15.2776 16.0643 15.39 15.6149 15.39ZM15.6149 11.4583C15.3903 11.4583 15.0533 11.5706 14.8286 11.6829C14.4916 11.9076 14.2669 12.2446 14.2669 12.5816C14.1546 12.9186 14.2669 13.368 14.4916 13.705C14.9409 14.379 15.8396 14.4913 16.5136 14.042C17.1876 13.5926 17.3 12.6939 16.8506 12.0199C16.626 11.6829 16.289 11.4583 15.952 11.4583H15.6149ZM27.6348 21.5684H21.2317C20.8947 21.5684 20.67 21.3437 20.67 21.0067C20.67 20.6697 20.8947 20.445 21.2317 20.445H27.6348C27.9718 20.445 28.1964 20.6697 28.1964 21.0067C28.1964 21.3437 27.8594 21.5684 27.6348 21.5684ZM18.4233 21.5684H13.7053C13.3683 21.5684 13.1436 21.3437 13.1436 21.0067C13.1436 20.6697 13.3683 20.445 13.7053 20.445H18.4233C18.7603 20.445 18.985 20.6697 18.985 21.0067C18.985 21.3437 18.7603 21.5684 18.4233 21.5684ZM31.5665 24.1521H25.6127C25.2757 24.1521 25.0511 23.9274 25.0511 23.5904C25.0511 23.2534 25.2757 23.0287 25.6127 23.0287H31.5665C31.9035 23.0287 32.1282 23.2534 32.1282 23.5904C32.1282 23.9274 31.9035 24.1521 31.5665 24.1521ZM22.8044 24.1521H13.5929C13.2559 24.1521 13.0312 23.9274 13.0312 23.5904C13.0312 23.2534 13.2559 23.0287 13.5929 23.0287H22.8044C23.1414 23.0287 23.366 23.2534 23.366 23.5904C23.366 23.9274 23.1414 24.1521 22.8044 24.1521ZM27.1854 26.7358H21.681C21.344 26.7358 21.1194 26.5111 21.1194 26.1741C21.1194 25.8371 21.344 25.6124 21.681 25.6124H27.1854C27.5224 25.6124 27.7471 25.8371 27.7471 26.1741C27.7471 26.5111 27.4101 26.7358 27.1854 26.7358ZM18.8727 26.7358H13.7053C13.3683 26.7358 13.1436 26.5111 13.1436 26.1741C13.1436 25.8371 13.3683 25.6124 13.7053 25.6124H18.8727C19.2097 25.6124 19.4343 25.8371 19.4343 26.1741C19.4343 26.5111 19.0973 26.7358 18.8727 26.7358ZM31.5665 29.3195H26.0621C25.7251 29.3195 25.5004 29.0948 25.5004 28.7578C25.5004 28.4208 25.7251 28.1961 26.0621 28.1961H31.5665C31.9035 28.1961 32.1282 28.4208 32.1282 28.7578C32.1282 29.0948 31.9035 29.3195 31.5665 29.3195ZM23.2537 29.3195H13.7053C13.3683 29.3195 13.1436 29.0948 13.1436 28.7578C13.1436 28.4208 13.3683 28.1961 13.7053 28.1961H23.2537C23.5907 28.1961 23.8154 28.4208 23.8154 28.7578C23.8154 29.0948 23.5907 29.3195 23.2537 29.3195ZM19.7713 31.9032H13.7053C13.3683 31.9032 13.1436 31.6785 13.1436 31.3415C13.1436 31.0045 13.3683 30.7798 13.7053 30.7798H19.7713C20.1083 30.7798 20.333 31.0045 20.333 31.3415C20.333 31.6785 20.1083 31.9032 19.7713 31.9032ZM45.9453 33.8129C45.7207 33.8129 45.496 33.7005 45.3837 33.4759L44.3727 30.7798C44.2603 30.6675 44.3727 30.4428 44.3727 30.3305C44.485 30.2182 44.5973 30.1058 44.7097 30.1058C45.3837 29.9935 46.0577 29.7688 46.7317 29.4318C46.844 29.3195 47.0687 29.3195 47.181 29.4318L47.518 29.7688L48.529 32.4649V32.9142L48.192 33.2512L46.0577 34.0376C46.0577 33.8129 46.0577 33.8129 45.9453 33.8129ZM45.7207 30.8922L46.2823 32.4649L47.2934 32.1279L46.7317 30.5552L45.7207 30.8922Z" fill="#00005C"></path><path d="M50.2138 45.2707C49.6521 45.2707 49.0904 45.1584 48.5288 44.8214C47.6301 44.3721 46.9561 43.4734 46.6191 42.4624L44.1477 33.8126C44.0354 33.4756 44.26 33.2509 44.4847 33.1386L49.2028 31.4536C49.4274 31.3412 49.7644 31.4536 49.8768 31.7906L53.5838 39.991C54.0332 40.8897 54.0332 42.013 53.5838 43.024C53.1345 44.0351 52.3481 44.7091 51.4495 45.0461C51.1125 45.1584 50.6631 45.2707 50.2138 45.2707ZM47.6301 42.2377C47.8547 42.9117 48.3041 43.4734 48.9781 43.8104C49.6521 44.1474 50.3261 44.1474 51.1125 43.9227C51.7865 43.6981 52.3481 43.1364 52.5728 42.4624C52.9098 41.7884 52.7975 41.002 52.5728 40.328L49.0904 32.5769L45.3834 33.9249L47.6301 42.2377ZM43.249 31.2289C42.3503 31.2289 41.4517 31.1166 40.6653 30.8919C38.0816 30.2179 35.9473 28.5329 34.5992 26.1738C33.2512 23.8148 32.9142 21.1188 33.5882 18.5351C34.2622 15.9514 35.9473 13.817 38.3063 12.469C40.6653 11.121 43.3614 10.784 45.9451 11.458C48.5288 12.132 50.6631 13.817 52.0111 16.176C53.3591 18.5351 53.6962 21.2311 53.0221 23.8148C52.3481 26.3985 50.6631 28.5329 48.3041 29.8809C46.6191 30.7796 44.934 31.2289 43.249 31.2289ZM43.1367 12.2443C41.564 12.2443 40.1036 12.6937 38.6433 13.48C36.6213 14.7157 35.0486 16.6254 34.4869 18.8721C33.9252 21.1188 34.1499 23.5901 35.3856 25.6122C36.6213 27.6342 38.531 29.2069 40.7777 29.7685C43.0243 30.4426 45.4957 30.1056 47.5177 28.8699C49.5398 27.6342 51.1125 25.7245 51.6741 23.4778C52.2358 21.2311 52.0111 18.7597 50.7755 16.7377C49.5398 14.7157 47.6301 13.143 45.3834 12.5813C44.7094 12.3567 43.923 12.2443 43.1367 12.2443Z" fill="#00005C"></path><path d="M43.1368 28.4212C42.6875 28.4212 42.2381 28.4212 41.7888 28.3089C37.8571 27.5225 35.3857 23.8155 36.0597 19.8837C36.8461 15.952 40.5531 13.3683 44.4848 14.1547C46.3945 14.4917 47.9672 15.615 49.0905 17.1877C50.2139 18.7604 50.5509 20.6701 50.2139 22.5798C49.8769 24.4895 48.7535 26.0622 47.1809 27.1855C46.0575 27.9719 44.5972 28.4212 43.1368 28.4212ZM37.1831 19.9961C36.509 23.2538 38.7557 26.5115 42.0135 27.0732C43.5861 27.4102 45.2712 27.0732 46.5068 26.1745C47.8549 25.2758 48.7535 23.9278 49.0905 22.2428C49.4276 20.6701 49.0905 18.9851 48.1919 17.6371C47.2932 16.289 45.9452 15.3904 44.2602 15.0534C41.0024 14.604 37.8571 16.7384 37.1831 19.9961Z" fill="#00005C"></path></svg>