<svg xmlns="http://www.w3.org/2000/svg" width="65" height="46" viewBox="0 0 65 46" fill="none"><path d="M12.8102 21.9511C8.66736 21.9511 5.29706 18.6115 5.29706 14.5078C5.29706 10.4037 8.66736 7.06398 12.8102 7.06398C16.9527 7.06398 20.3223 10.4032 20.3223 14.5078C20.3223 18.612 16.9527 21.9511 12.8102 21.9511ZM12.8102 9.15304C9.81896 9.15304 7.38612 11.5553 7.38612 14.5078C7.38612 17.4599 9.81896 19.8621 12.8102 19.8621C15.8006 19.8621 18.2333 17.4599 18.2333 14.5078C18.2333 11.5553 15.8006 9.15304 12.8102 9.15304ZM15.8327 42.5602H2.73014C1.22471 42.5602 0 41.3433 0 39.8471V36.4305C0 29.4361 5.74647 23.7452 12.8102 23.7452C15.5884 23.7452 18.2329 24.6122 20.4555 26.2521C20.6784 26.4167 20.8268 26.663 20.8681 26.937C20.9094 27.211 20.8402 27.4901 20.6758 27.7131C20.5112 27.9359 20.2649 28.0842 19.9911 28.1255C19.7172 28.1668 19.4381 28.0978 19.2151 27.9335C17.3541 26.5606 15.1395 25.8343 12.8102 25.8343C6.89859 25.8343 2.08906 30.5882 2.08906 36.4305V39.8471C2.08906 40.1909 2.37669 40.471 2.73014 40.471H15.8332C16.4095 40.471 16.8777 40.9387 16.8777 41.5155C16.8777 42.0918 16.4095 42.56 15.8327 42.56V42.5602ZM62.0306 41.7696H48.928C48.3517 41.7696 47.8835 41.3019 47.8835 40.7251C47.8835 40.1488 48.3517 39.6805 48.928 39.6805H62.0311C62.3846 39.6805 62.6722 39.4011 62.6722 39.0574V35.6407C62.6722 29.7973 57.8627 25.0444 51.951 25.0444C49.482 25.0444 47.0717 25.8946 45.1636 27.4389C44.7157 27.8016 44.0583 27.7327 43.6947 27.2845C43.3321 26.8361 43.4004 26.1782 43.8498 25.8151C46.1281 23.9714 49.0051 22.9553 51.951 22.9553C59.0143 22.9553 64.7607 28.6456 64.7607 35.6407V39.0574C64.7607 40.5527 63.5362 41.7696 62.0306 41.7696ZM51.9505 21.435C47.8081 21.435 44.4384 18.0959 44.4384 13.9917C44.4384 9.88747 47.8081 6.54785 51.9505 6.54785C56.0934 6.54785 59.4637 9.88708 59.4637 13.9917C59.4637 18.0963 56.0929 21.435 51.9505 21.435ZM51.9505 8.63691C48.9602 8.63691 46.5275 11.0392 46.5275 13.9917C46.5275 16.9442 48.9602 19.3459 51.9505 19.3459C54.9418 19.3459 57.3746 16.9442 57.3746 13.9917C57.3746 11.0392 54.9413 8.63691 51.9505 8.63691Z" fill="#0F367A"></path><path d="M46.5571 45.9591H18.2039C16.3204 45.9591 14.7883 44.4383 14.7883 42.5684V37.7631C14.7883 28.1593 22.6793 20.3462 32.3805 20.3462C42.0817 20.3462 49.9727 28.1593 49.9727 37.7631V42.5684C49.9727 44.4382 48.4407 45.9591 46.5571 45.9591ZM32.3805 22.4358C23.832 22.4358 16.8774 29.3119 16.8774 37.7635V42.569C16.8774 43.2866 17.4725 43.8706 18.2039 43.8706H46.5566C47.288 43.8706 47.8832 43.2866 47.8832 42.569V37.7635C47.8837 29.3119 40.9291 22.4358 32.3805 22.4358ZM32.0174 19.1257C26.6948 19.1257 22.3636 14.836 22.3636 9.56227C22.3636 4.28923 26.6944 -0.00012207 32.0176 -0.00012207C37.3411 -0.00012207 41.6717 4.28962 41.6717 9.56279C41.6717 14.8364 37.3406 19.1257 32.0176 19.1257H32.0174ZM32.0174 2.08893C27.8464 2.08893 24.4527 5.44187 24.4527 9.56279C24.4527 13.6844 27.8464 17.0372 32.0174 17.0372C36.1889 17.0372 39.5826 13.6842 39.5826 9.56279C39.5826 5.44187 36.1889 2.08893 32.0176 2.08893H32.0174Z" fill="#0F367A"></path></svg>