<svg xmlns="http://www.w3.org/2000/svg" width="71" height="51" viewBox="0 0 71 51" fill="none"><path d="M28.7976 50.9987C27.7529 50.999 26.7506 50.5854 26.0101 49.8484C25.5936 49.4315 25.2763 48.9261 25.0818 48.3698C24.8873 47.8134 24.8205 47.2205 24.8865 46.6348C24.9524 46.0492 25.1494 45.4859 25.4628 44.9868C25.7761 44.4876 26.1979 44.0655 26.6967 43.7516C29.3247 42.1048 32.3634 41.2314 35.4648 41.2314C38.5661 41.2314 41.6048 42.1048 44.2329 43.7516C44.7317 44.0655 45.1534 44.4876 45.4668 44.9868C45.7802 45.4859 45.9771 46.0492 46.0431 46.6348C46.109 47.2205 46.0423 47.8134 45.8478 48.3698C45.6532 48.9261 45.336 49.4315 44.9195 49.8484C43.6311 51.1408 41.5907 51.3719 40.073 50.4066C38.6941 49.5387 37.0981 49.0782 35.4688 49.0782C33.8396 49.0782 32.2435 49.5387 30.8646 50.4066C30.2462 50.7969 29.529 51.0024 28.7976 50.9987ZM35.4607 43.4931C32.7857 43.4873 30.1638 44.2401 27.8994 45.6643C27.6877 45.7971 27.5086 45.9759 27.3754 46.1874C27.2422 46.3988 27.1584 46.6376 27.1302 46.8859C27.1019 47.1343 27.13 47.3857 27.2122 47.6217C27.2945 47.8577 27.4289 48.0722 27.6054 48.2491C27.8678 48.514 28.212 48.6826 28.5822 48.7275C28.9524 48.7723 29.3269 48.6909 29.6449 48.4963C31.3861 47.3985 33.4024 46.8159 35.4607 46.8159C37.5191 46.8159 39.5354 47.3985 41.2765 48.4963C41.6517 48.7165 42.0982 48.781 42.5203 48.676C42.9425 48.571 43.3067 48.3048 43.535 47.9346C43.7634 47.5643 43.8376 47.1194 43.7419 46.695C43.6461 46.2707 43.3881 45.9007 43.0229 45.6643C40.7582 44.24 38.1361 43.4871 35.4607 43.4931ZM23.796 39.6757C22.9728 39.678 22.1697 39.4211 21.5006 38.9415C20.8315 38.4618 20.3304 37.7837 20.0682 37.0033C19.8061 36.2229 19.7963 35.3798 20.0401 34.5935C20.284 33.8071 20.7692 33.1175 21.4269 32.6224C25.4891 29.5708 30.3412 27.9577 35.4607 27.9577C40.5802 27.9577 45.4324 29.5732 49.4945 32.6224C50.3121 33.2529 50.8484 34.1801 50.9873 35.2031C51.1261 36.2262 50.8564 37.2627 50.2365 38.0883C49.6165 38.9139 48.6963 39.462 47.6751 39.614C46.6539 39.766 45.614 39.5095 44.7805 38.9002C42.0868 36.8957 38.8185 35.8131 35.4607 35.8131C32.103 35.8131 28.8347 36.8957 26.1409 38.9002C25.4637 39.4055 24.641 39.6775 23.796 39.6757ZM35.4607 30.2194C30.8892 30.2013 26.4375 31.6802 22.7856 34.4302C22.5959 34.5719 22.4392 34.7531 22.3265 34.9613C22.2138 35.1696 22.1478 35.3998 22.1329 35.6361C22.11 35.9543 22.179 36.2723 22.3316 36.5524C22.4843 36.8325 22.7142 37.0628 22.9939 37.2159C23.2737 37.3691 23.5916 37.4387 23.9098 37.4164C24.228 37.394 24.5331 37.2808 24.7888 37.0901C27.8735 34.7929 31.617 33.5522 35.4632 33.5522C39.3093 33.5522 43.0528 34.7929 46.1375 37.0901C46.3932 37.2808 46.6983 37.394 47.0165 37.4164C47.3347 37.4387 47.6526 37.3691 47.9324 37.2159C48.2122 37.0628 48.442 36.8325 48.5947 36.5524C48.7473 36.2723 48.8163 35.9543 48.7934 35.6361C48.7783 35.3996 48.7118 35.1693 48.5987 34.961C48.4856 34.7528 48.3285 34.5716 48.1383 34.4302C44.4857 31.6797 40.0331 30.2008 35.4607 30.2194ZM63.9476 30.6572C63.6784 30.6568 63.4183 30.5605 63.2138 30.3855C63.0093 30.2105 62.874 29.9683 62.8321 29.7024C61.5397 21.6128 56.7473 14.5475 49.6852 10.3165C49.4391 10.1571 49.2644 9.90846 49.1981 9.62287C49.1319 9.33728 49.1791 9.03711 49.3298 8.78566C49.4806 8.53421 49.7231 8.35114 50.0063 8.27507C50.2894 8.19899 50.591 8.23585 50.8475 8.37788C54.5653 10.6119 57.7605 13.6176 60.2174 17.192C62.7211 20.8311 64.379 24.9841 65.0695 29.347C65.0954 29.5087 65.0858 29.674 65.0415 29.8316C64.9972 29.9892 64.9192 30.1353 64.8129 30.2598C64.7066 30.3843 64.5745 30.4842 64.4258 30.5527C64.2771 30.6212 64.1153 30.6565 63.9516 30.6564L63.9476 30.6572ZM6.9739 30.6572C6.81019 30.6574 6.64839 30.622 6.49969 30.5535C6.35098 30.4851 6.21892 30.3851 6.11262 30.2606C6.00632 30.1361 5.92832 29.99 5.88401 29.8324C5.8397 29.6748 5.83013 29.5095 5.85598 29.3478C6.54649 24.985 8.20436 20.8319 10.7081 17.1928C13.1637 13.6185 16.3575 10.6126 20.0739 8.37788C20.3304 8.23585 20.6321 8.19899 20.9152 8.27507C21.1983 8.35114 21.4409 8.53421 21.5916 8.78566C21.7424 9.03711 21.7896 9.33728 21.7233 9.62287C21.657 9.90846 21.4824 10.1571 21.2363 10.3165C14.1742 14.5475 9.38179 21.6128 8.0894 29.7024C8.04749 29.9683 7.91214 30.2105 7.70767 30.3855C7.50321 30.5605 7.24303 30.6568 6.9739 30.6572Z" fill="#257A90"></path><path d="M24.3302 12.8432C23.7634 12.8432 23.2022 12.7312 22.6789 12.5135C22.1556 12.2959 21.6805 11.9769 21.2809 11.575L19.8544 10.1485C19.362 9.65517 18.9959 9.05019 18.7874 8.38503C18.5789 7.71987 18.5341 7.01419 18.6568 6.328C18.7795 5.6418 19.066 4.99537 19.4921 4.44366C19.9181 3.89195 20.4711 3.45128 21.104 3.1591C21.4562 2.99755 21.8173 2.836 22.1783 2.68253C26.3825 0.91205 30.8983 0 35.4601 0C40.0219 0 44.5377 0.91205 48.7419 2.68253C49.103 2.836 49.464 2.99593 49.8162 3.1591C50.4491 3.45128 51.0021 3.89195 51.4282 4.44366C51.8542 4.99537 52.1408 5.6418 52.2635 6.328C52.3861 7.01419 52.3413 7.71987 52.1328 8.38503C51.9243 9.05019 51.5583 9.65517 51.0658 10.1485L49.6393 11.575C49.0246 12.1926 48.2371 12.6095 47.3807 12.7705C46.5243 12.9316 45.6392 12.8294 44.8421 12.4773C41.881 11.1932 38.6877 10.5306 35.4601 10.5306C32.2325 10.5306 29.0393 11.1932 26.0781 12.4773C25.5268 12.7181 24.9318 12.8427 24.3302 12.8432ZM35.4601 2.26169C31.2002 2.25351 26.9825 3.10519 23.0596 4.76571C22.7227 4.90868 22.3851 5.05811 22.0564 5.21078C21.7536 5.34974 21.4889 5.55979 21.2848 5.82304C21.0807 6.08629 20.9432 6.39496 20.8841 6.72277C20.8249 7.05058 20.8458 7.38784 20.945 7.70584C21.0442 8.02383 21.2187 8.31316 21.4538 8.5492L22.8803 9.97568C23.1748 10.2704 23.5517 10.469 23.9614 10.5453C24.371 10.6216 24.7942 10.5719 25.1751 10.403C28.4212 8.99507 31.9218 8.26861 35.4601 8.26861C38.9984 8.26861 42.499 8.99507 45.7452 10.403C46.1261 10.5719 46.5492 10.6216 46.9589 10.5453C47.3685 10.469 47.7454 10.2704 48.04 9.97568L49.4665 8.5492C49.7017 8.3135 49.8765 8.02448 49.976 7.70673C50.0756 7.38897 50.0969 7.05187 50.0382 6.7241C49.9795 6.39633 49.8426 6.08758 49.639 5.82411C49.4353 5.56063 49.1711 5.35022 48.8687 5.21078C48.5392 5.05811 48.2015 4.90868 47.8639 4.76571C43.94 3.10459 39.7211 2.2529 35.4601 2.26169ZM6.80366 47.4503C4.99973 47.4482 3.27031 46.7306 1.99482 45.4549C0.719328 44.1793 0.00192395 42.4498 0 40.6459V35.1952C0 33.3907 0.716812 31.6602 1.99275 30.3843C3.26868 29.1083 4.99922 28.3915 6.80366 28.3915C8.6081 28.3915 10.3386 29.1083 11.6146 30.3843C12.8905 31.6602 13.6073 33.3907 13.6073 35.1952V40.6442C13.6058 42.4485 12.8886 44.1784 11.6131 45.4544C10.3375 46.7304 8.60786 47.4482 6.80366 47.4503ZM6.80366 30.654C5.59965 30.6555 4.44538 31.1344 3.59394 31.9857C2.74251 32.837 2.2634 33.9912 2.26169 35.1952V40.6442C2.26298 41.8485 2.74189 43.0031 3.59337 43.8548C4.44485 44.7064 5.59937 45.1855 6.80366 45.187C8.00794 45.1855 9.16246 44.7064 10.0139 43.8548C10.8654 43.0031 11.3443 41.8485 11.3456 40.6442V35.1952C11.3439 33.9912 10.8648 32.837 10.0134 31.9857C9.16194 31.1344 8.00766 30.6555 6.80366 30.654ZM64.1166 47.4503C62.3127 47.4482 60.5832 46.7306 59.3077 45.4549C58.0322 44.1793 57.3148 42.4498 57.3129 40.6459V35.1952C57.3129 33.3907 58.0297 31.6602 59.3057 30.3843C60.5816 29.1083 62.3121 28.3915 64.1166 28.3915C65.921 28.3915 67.6516 29.1083 68.9275 30.3843C70.2034 31.6602 70.9202 33.3907 70.9202 35.1952V40.6442C70.9187 42.4485 70.2015 44.1784 68.926 45.4544C67.6505 46.7304 65.9208 47.4482 64.1166 47.4503ZM64.1166 30.654C62.9126 30.6555 61.7583 31.1344 60.9069 31.9857C60.0554 32.837 59.5763 33.9912 59.5746 35.1952V40.6442C59.5759 41.8485 60.0548 43.0031 60.9063 43.8548C61.7578 44.7064 62.9123 45.1855 64.1166 45.187C65.3206 45.1855 66.4749 44.7066 67.3263 43.8553C68.1777 43.0041 68.6568 41.8499 68.6585 40.6459V35.1952C68.6568 33.9912 68.1777 32.837 67.3263 31.9857C66.4749 31.1344 65.3206 30.6555 64.1166 30.654Z" fill="#257A90"></path></svg>