<svg xmlns="http://www.w3.org/2000/svg" width="62" height="65" viewBox="0 0 62 65" fill="none"><path d="M22.4341 10.7002H24.5729V13.5876C24.5729 13.8712 24.6856 14.1432 24.8861 14.3438C25.0867 14.5443 25.3587 14.657 25.6423 14.657C25.9259 14.657 26.1979 14.5443 26.3985 14.3438C26.599 14.1432 26.7117 13.8712 26.7117 13.5876V9.63081C26.7117 9.34719 26.599 9.07518 26.3985 8.87463C26.1979 8.67408 25.9259 8.56141 25.6423 8.56141H25.0114L30.9893 2.58346L36.9673 8.56141H36.3363C36.0527 8.56141 35.7807 8.67408 35.5801 8.87463C35.3796 9.07518 35.2669 9.34719 35.2669 9.63081V13.5983C35.2669 13.8819 35.3796 14.1539 35.5801 14.3545C35.7807 14.555 36.0527 14.6677 36.3363 14.6677C36.6199 14.6677 36.8919 14.555 37.0925 14.3545C37.293 14.1539 37.4057 13.8819 37.4057 13.5983V10.7002H39.5445C39.7556 10.6992 39.9617 10.6356 40.1368 10.5176C40.3119 10.3997 40.4481 10.2325 40.5284 10.0372C40.6103 9.84243 40.6326 9.62779 40.5927 9.42034C40.5527 9.21289 40.4522 9.02192 40.3038 8.87154L31.7486 0.316327C31.6492 0.216094 31.5309 0.136536 31.4006 0.0822443C31.2703 0.0279523 31.1305 0 30.9893 0C30.8481 0 30.7084 0.0279523 30.578 0.0822443C30.4477 0.136536 30.3294 0.216094 30.23 0.316327L21.6748 8.87154C21.5264 9.02192 21.4259 9.21289 21.3859 9.42034C21.346 9.62779 21.3684 9.84243 21.4502 10.0372C21.5305 10.2325 21.6667 10.3997 21.8418 10.5176C22.0169 10.6356 22.223 10.6992 22.4341 10.7002ZM61.6918 36.676L53.1366 28.1208C53.0372 28.0205 52.9189 27.941 52.7886 27.8867C52.6583 27.8324 52.5185 27.8044 52.3773 27.8044C52.2362 27.8044 52.0964 27.8324 51.9661 27.8867C51.8357 27.941 51.7175 28.0205 51.6181 28.1208L49.4793 30.2596C49.2779 30.4609 49.1647 30.7341 49.1647 31.0188C49.1647 31.3036 49.2779 31.5767 49.4793 31.7781C49.6806 31.9795 49.9537 32.0926 50.2385 32.0926C50.5233 32.0926 50.7964 31.9795 50.9978 31.7781L52.3773 30.3879L58.3553 36.3658H57.7243C57.4407 36.3658 57.1687 36.4785 56.9682 36.6791C56.7676 36.8796 56.6549 37.1516 56.6549 37.4352V62.0315H48.0997V42.7074C48.0997 42.4238 47.9871 42.1518 47.7865 41.9512C47.586 41.7507 47.3139 41.638 47.0303 41.638C46.7467 41.638 46.4747 41.7507 46.2741 41.9512C46.0736 42.1518 45.9609 42.4238 45.9609 42.7074V63.1009C45.9609 63.3845 46.0736 63.6565 46.2741 63.857C46.4747 64.0576 46.7467 64.1703 47.0303 64.1703H57.7243C58.008 64.1703 58.28 64.0576 58.4805 63.857C58.6811 63.6565 58.7937 63.3845 58.7937 63.1009V38.5046H60.9325C61.1437 38.5036 61.3498 38.4401 61.5248 38.3221C61.6999 38.2041 61.8362 38.0369 61.9164 37.8416C61.9983 37.6469 62.0207 37.4322 61.9807 37.2248C61.9407 37.0173 61.8402 36.8264 61.6918 36.676ZM14.9483 41.7128C14.6647 41.7128 14.3927 41.8255 14.1921 42.0261C13.9916 42.2266 13.8789 42.4986 13.8789 42.7822V62.0315H5.32368V37.4352C5.32368 37.1516 5.21101 36.8796 5.01046 36.6791C4.80991 36.4785 4.5379 36.3658 4.25428 36.3658H3.62333L9.60128 30.3879L11.0022 31.7995C11.1019 31.8992 11.2203 31.9783 11.3506 32.0323C11.4808 32.0862 11.6205 32.114 11.7615 32.114C11.9025 32.114 12.0421 32.0862 12.1724 32.0323C12.3027 31.9783 12.421 31.8992 12.5207 31.7995C12.6205 31.6998 12.6996 31.5814 12.7535 31.4511C12.8075 31.3209 12.8353 31.1812 12.8353 31.0402C12.8353 30.8992 12.8075 30.7596 12.7535 30.6293C12.6996 30.499 12.6205 30.3807 12.5207 30.2809L10.3819 28.1421C10.2825 28.0419 10.1643 27.9624 10.0339 27.9081C9.90362 27.8538 9.76385 27.8258 9.62267 27.8258C9.4815 27.8258 9.34172 27.8538 9.2114 27.9081C9.08109 27.9624 8.96281 28.0419 8.8634 28.1421L0.308187 36.6974C0.159799 36.8477 0.0592796 37.0387 0.0193116 37.2462C-0.0206563 37.4536 0.00171842 37.6683 0.0836125 37.863C0.165621 38.051 0.299955 38.2114 0.470602 38.3252C0.641249 38.4389 0.84101 38.5012 1.04607 38.5046H3.18488V63.1009C3.18488 63.3845 3.29754 63.6565 3.4981 63.857C3.69865 64.0576 3.97065 64.1703 4.25428 64.1703H14.9483C15.2319 64.1703 15.5039 64.0576 15.7045 63.857C15.905 63.6565 16.0177 63.3845 16.0177 63.1009V42.7822C16.0177 42.4986 15.905 42.2266 15.7045 42.0261C15.5039 41.8255 15.2319 41.7128 14.9483 41.7128Z" fill="#DE5D5D"></path><path d="M46.9662 30.5906C46.7135 27.8931 45.7816 25.3035 44.2575 23.0634C42.7334 20.8234 40.6668 19.0059 38.2504 17.7804C35.834 16.555 33.1466 15.9616 30.4388 16.0555C27.7311 16.1495 25.0913 16.9278 22.7656 18.3178C20.44 19.7077 18.5043 21.6641 17.1391 24.0045C15.774 26.3448 15.0239 28.9927 14.9587 31.7013C14.8936 34.4099 15.5156 37.0908 16.7667 39.494C18.0178 41.8973 19.8572 43.9444 22.1133 45.4446C22.5478 45.7433 22.9019 46.1445 23.1444 46.6127C23.3869 47.0809 23.5102 47.6016 23.5035 48.1288V59.8922C23.5035 60.1758 23.6162 60.4478 23.8168 60.6484C24.0173 60.8489 24.2893 60.9616 24.5729 60.9616H26.8508C27.09 61.877 27.626 62.6873 28.3749 63.2656C29.1237 63.8438 30.0432 64.1575 30.9893 64.1575C31.9355 64.1575 32.855 63.8438 33.6038 63.2656C34.3527 62.6873 34.8887 61.877 35.1279 60.9616H37.4058C37.6894 60.9616 37.9614 60.8489 38.1619 60.6484C38.3625 60.4478 38.4752 60.1758 38.4752 59.8922V48.1288C38.4705 47.6106 38.594 47.0992 38.8346 46.6402C39.0753 46.1813 39.4257 45.7889 39.8547 45.4981C42.2806 43.8918 44.2239 41.656 45.4766 39.03C46.7293 36.404 47.2442 33.4868 46.9662 30.5906ZM36.3364 58.8228H34.1975C33.9139 58.8228 33.6419 58.9355 33.4414 59.136C33.2408 59.3366 33.1281 59.6086 33.1281 59.8922C33.1281 60.4595 32.9028 61.0035 32.5017 61.4046C32.1006 61.8057 31.5566 62.031 30.9893 62.031C30.4221 62.031 29.8781 61.8057 29.477 61.4046C29.0759 61.0035 28.8505 60.4595 28.8505 59.8922C28.8505 59.6086 28.7379 59.3366 28.5373 59.136C28.3368 58.9355 28.0648 58.8228 27.7811 58.8228H25.6423V54.5452H36.3364V58.8228ZM38.6676 43.6694C37.9429 44.1643 37.3512 44.83 36.9446 45.6077C36.5381 46.3854 36.3292 47.2513 36.3364 48.1288V52.4064H25.6423V48.1288C25.647 47.2565 25.4355 46.3966 25.0268 45.6259C24.6182 44.8553 24.025 44.1978 23.3004 43.7122C21.3838 42.4399 19.8129 40.7119 18.7286 38.6831C17.6442 36.6543 17.0802 34.3882 17.0871 32.0878C17.085 30.205 17.4653 28.3413 18.2051 26.6099C18.9448 24.8785 20.0285 23.3154 21.3905 22.0154C22.7525 20.7154 24.3644 19.7056 26.1284 19.0473C27.8924 18.3889 29.7717 18.0958 31.6524 18.1856C34.5788 18.3261 37.386 19.3876 39.6732 21.2184C41.9605 23.0493 43.6109 25.5559 44.3888 28.3806C45.1667 31.2052 45.0323 34.2033 44.0049 36.9471C42.9775 39.6908 41.1095 42.0398 38.6676 43.6587V43.6694Z" fill="#DE5D5D"></path><path d="M30.9894 22.4629C29.0858 22.4629 27.225 23.0274 25.6422 24.0849C24.0595 25.1425 22.8258 26.6457 22.0974 28.4043C21.3689 30.163 21.1783 32.0982 21.5497 33.9652C21.9211 35.8322 22.8377 37.5471 24.1837 38.8931C25.5298 40.2392 27.2447 41.1558 29.1117 41.5272C30.9787 41.8985 32.9139 41.7079 34.6725 40.9795C36.4312 40.251 37.9344 39.0174 38.9919 37.4346C40.0495 35.8519 40.614 33.9911 40.614 32.0875C40.614 29.5349 39.6 27.0868 37.795 25.2819C35.99 23.4769 33.542 22.4629 30.9894 22.4629ZM30.9894 39.5733C29.5088 39.5733 28.0615 39.1343 26.8305 38.3117C25.5994 37.4892 24.64 36.32 24.0734 34.9522C23.5068 33.5843 23.3585 32.0792 23.6474 30.6271C23.9362 29.175 24.6492 27.8411 25.6961 26.7942C26.743 25.7473 28.0768 25.0344 29.529 24.7455C30.9811 24.4567 32.4862 24.6049 33.8541 25.1715C35.2219 25.7381 36.391 26.6976 37.2136 27.9286C38.0361 29.1596 38.4752 30.6069 38.4752 32.0875C38.4752 34.0729 37.6865 35.9769 36.2826 37.3808C34.8788 38.7846 32.9747 39.5733 30.9894 39.5733Z" fill="#DE5D5D"></path><path d="M30.9895 28.8799C30.3549 28.8799 29.7347 29.068 29.2071 29.4206C28.6795 29.7731 28.2683 30.2741 28.0255 30.8604C27.7826 31.4466 27.7191 32.0916 27.8429 32.714C27.9667 33.3363 28.2722 33.908 28.7209 34.3566C29.1696 34.8053 29.7412 35.1109 30.3636 35.2346C30.9859 35.3584 31.631 35.2949 32.2172 35.0521C32.8034 34.8093 33.3045 34.3981 33.657 33.8705C34.0095 33.3429 34.1977 32.7226 34.1977 32.0881C34.1977 31.2372 33.8597 30.4212 33.258 29.8195C32.6563 29.2179 31.8403 28.8799 30.9895 28.8799ZM30.9895 33.1575C30.7779 33.1575 30.5712 33.0948 30.3953 32.9773C30.2195 32.8598 30.0824 32.6927 30.0015 32.4973C29.9205 32.3019 29.8993 32.0869 29.9406 31.8795C29.9819 31.672 30.0837 31.4815 30.2333 31.3319C30.3828 31.1823 30.5734 31.0805 30.7808 31.0392C30.9883 30.998 31.2033 31.0191 31.3987 31.1001C31.5941 31.181 31.7611 31.3181 31.8786 31.494C31.9961 31.6698 32.0589 31.8766 32.0589 32.0881C32.0589 32.3717 31.9462 32.6437 31.7456 32.8443C31.5451 33.0448 31.2731 33.1575 30.9895 33.1575Z" fill="#DE5D5D"></path></svg>